<svg width="13" height="13" viewBox="0 0 13 13" fill="none" xmlns="http://www.w3.org/2000/svg">
<g clip-path="url(#clip0_35_586)">
<path fill-rule="evenodd" clip-rule="evenodd" d="M0.926909 0.0512958C1.10218 0.00026898 1.28629 -0.0128833 1.46703 0.0127125L1.47797 0.0142614C2.85909 0.243483 4.14995 0.82485 5.23047 1.6928V10.8227C3.87337 9.87916 2.64725 9.44273 1.13124 9.18998C0.820447 9.15214 0.53392 9.00224 0.325556 8.76812C0.114413 8.53088 -0.00152508 8.22396 1.51514e-05 7.9064V1.2867C7.34748e-06 1.10085 0.0402587 0.91717 0.118 0.74836C0.195747 0.57954 0.309142 0.429565 0.450384 0.308756C0.589139 0.190143 0.751643 0.102323 0.926909 0.0512958ZM6.39118 5.46897V1.69244C7.4716 0.824688 8.76231 0.243451 10.1432 0.0142614L10.1542 0.0127125C10.3349 -0.0128833 10.519 0.00026898 10.6943 0.0512958C10.8696 0.102323 11.0321 0.190143 11.1708 0.308756C11.312 0.429565 11.4254 0.57954 11.5032 0.74836C11.581 0.91717 11.6212 1.10085 11.6212 1.2867V7.9064C11.6227 8.22396 11.5068 8.53088 11.2956 8.76812C11.2469 8.8229 11.1938 8.87307 11.1372 8.91828C10.9566 8.88453 10.7702 8.86688 10.5798 8.86688H9.88334V7.47402C9.88334 6.19194 8.84396 5.1526 7.56187 5.1526C7.13491 5.1526 6.73488 5.26786 6.39118 5.46897ZM6.40115 12.3491V7.47402C6.40115 6.83298 6.92083 6.31331 7.56187 6.31331C8.20292 6.31331 8.72258 6.83298 8.72258 7.47402V10.0276H10.5798C11.6054 10.0276 12.4369 10.8591 12.4369 11.8848V12.3491C12.4369 12.6054 12.229 12.8134 11.9726 12.8134H6.86544C6.60902 12.8134 6.40115 12.6054 6.40115 12.3491Z" fill="#EF2A43"/>
</g>
<defs>
<clipPath id="clip0_35_586">
<rect width="13" height="13" fill="white"/>
</clipPath>
</defs>
</svg>
